<svg id="Layer_1" data-name="Layer 1" xmlns="http://www.w3.org/2000/svg" viewBox="0 0 512 512"><defs><style>.cls-1{fill:#fff;}.cls-2{fill:#f1e8d7;}.cls-3{fill:#193060;}</style></defs><title>Illustration</title><path class="cls-1" d="M139.81,388.68a12.18,12.18,0,0,1,.45,2.72A12.35,12.35,0,0,1,133.54,403l-32.47,16.57a22.87,22.87,0,0,0-12.45,21.57l2.09,39.91a10.06,10.06,0,0,0,10.58,9.52l59.55-3.12,59.56-3.12a10.06,10.06,0,0,0,9.52-10.57l-2.09-39.91a22.86,22.86,0,0,0-14.63-20.15l-34-13.09A12.34,12.34,0,0,1,183,376.8h0a6,6,0,0,0,5.63-6.24l-.27-5A8,8,0,0,0,179.9,358l-25.77,1.35-25.78,1.35a8,8,0,0,0-7.57,8.41l.26,5a6,6,0,0,0,6.25,5.62"/><path class="cls-2" d="M211,484.86l9.43-.49a10.06,10.06,0,0,0,9.52-10.57l-2.09-39.91a22.86,22.86,0,0,0-14.63-20.15l-33.73-13a12.63,12.63,0,0,1-8.1-9.93,12.35,12.35,0,0,1,11.58-14h0a6,6,0,0,0,1.47-.27l-16,.84a16.61,16.61,0,0,0-15.5,13.84h0a16.59,16.59,0,0,0,11.48,18.58l26.93,8.32a24.58,24.58,0,0,1,17.3,22.2Z"/><path class="cls-3" d="M100.74,493.13a12.57,12.57,0,0,1-12.52-11.91l-2.09-39.91a25.36,25.36,0,0,1,13.8-23.92l32.48-16.57a9.86,9.86,0,0,0,5.35-9.29,10.67,10.67,0,0,0-.35-2.17,2.5,2.5,0,0,1,4.81-1.36,15.2,15.2,0,0,1,.54,3.27,14.87,14.87,0,0,1-8.08,14L102.2,421.84a20.39,20.39,0,0,0-11.08,19.21L93.21,481a7.57,7.57,0,0,0,8,7.16l119.11-6.25a7.56,7.56,0,0,0,7.15-7.94L225.33,434a20.38,20.38,0,0,0-13-17.95l-34-13.08a14.84,14.84,0,0,1-5.7-23.79,14.74,14.74,0,0,1,10.25-4.9,3.44,3.44,0,0,0,3.26-3.61l-.26-5a5.44,5.44,0,0,0-1.82-3.8,5.51,5.51,0,0,0-4-1.41l-51.55,2.71a5.5,5.5,0,0,0-5.21,5.78l.27,5a3.43,3.43,0,0,0,3.61,3.26,2.5,2.5,0,0,1,.27,5,8.44,8.44,0,0,1-8.88-8l-.26-5a10.53,10.53,0,0,1,9.94-11l51.55-2.7a10.5,10.5,0,0,1,11,9.94l.26,5a8.46,8.46,0,0,1-8,8.88,9.84,9.84,0,0,0-3,19l34,13.08a25.42,25.42,0,0,1,16.23,22.35l2.09,39.92a12.59,12.59,0,0,1-11.89,13.2l-119.11,6.24Z"/><rect class="cls-3" x="117.98" y="425.76" width="81.9" height="50.38" rx="5.11" transform="translate(-23.38 8.94) rotate(-3)"/><path class="cls-3" d="M127.28,382.22a2.5,2.5,0,0,1-.13-5l30.33-1.59a2.5,2.5,0,0,1,.26,5l-30.32,1.59Z"/><path class="cls-1" d="M166.52,280.23l11.33-38.76A192,192,0,0,1,213,174.22C281.3,90.09,351.26,36.94,423.24,21.37c3,50.86-34,101.81-82.35,123.83l20.63-1.59c-14.34,24-38.85,46-67.15,67.2l15.45-.74c-18.58,40-45.08,60.84-83.81,52.14l39.66,8.45c-31.15,27.38-62.54,30-94,26"/><path class="cls-2" d="M376.71,71.45c-80.47,60.54-147.56,137.13-205,225.23l.25,0a36.14,36.14,0,0,0,35.28-17.07C250.87,208,305.17,143.33,378,90.86a26.41,26.41,0,0,0,9-11.53h0A6.72,6.72,0,0,0,376.71,71.45Z"/><path class="cls-3" d="M139.73,350.94a2.5,2.5,0,0,1-2.16-3.76c74.14-127,158.12-222.34,256.74-291.61a2.5,2.5,0,1,1,2.87,4.09c-98,68.85-181.52,163.73-255.29,290A2.53,2.53,0,0,1,139.73,350.94Z"/><path class="cls-3" d="M193.66,300.72a175.82,175.82,0,0,1-22.31-1.56,2.5,2.5,0,1,1,.62-5c27.29,3.46,59.56,3.15,92-25.41a2.5,2.5,0,1,1,3.3,3.75C241.88,294.91,216.65,300.72,193.66,300.72Z"/><path class="cls-3" d="M242.67,266.65a78.75,78.75,0,0,1-17.21-2,2.5,2.5,0,0,1,1.1-4.88c35,7.86,61.47-8.74,81-50.75a2.5,2.5,0,1,1,4.53,2.1c-9.81,21.12-21.67,36.38-35.24,45.36A60.74,60.74,0,0,1,242.67,266.65Z"/><path class="cls-3" d="M294.37,213.31a2.5,2.5,0,0,1-1.5-4.5c30.87-23.17,51.33-43.1,63.9-62.32l-15.69,1.2a2.5,2.5,0,0,1-1.23-4.77c48.63-22.14,82.27-71.58,81-118.45C414.09,26,407.24,28,400.47,30.2a2.5,2.5,0,1,1-1.57-4.75,231.6,231.6,0,0,1,23.81-6.52,2.54,2.54,0,0,1,2.05.45,2.52,2.52,0,0,1,1,1.85c2.68,46-27.31,94.91-72.58,120.52l8.17-.63a2.5,2.5,0,0,1,2.33,3.78c-12.61,21.08-34.15,42.66-67.79,67.91A2.48,2.48,0,0,1,294.37,213.31Z"/><path class="cls-3" d="M231.25,170.67a3.06,3.06,0,0,1-.59-.07,2.5,2.5,0,0,1-1.84-3,88.94,88.94,0,0,1,22.29-40.48c43-44.8,86.46-76.65,129.23-94.66a2.5,2.5,0,1,1,1.94,4.6c-42.13,17.75-85,49.21-127.57,93.52a84,84,0,0,0-21,38.2A2.51,2.51,0,0,1,231.25,170.67Z"/><path class="cls-3" d="M166.52,282.73a2.43,2.43,0,0,1-.7-.11,2.49,2.49,0,0,1-1.7-3.1l11.33-38.76a193.57,193.57,0,0,1,35.61-68.12c4.33-5.34,8.73-10.62,13.05-15.68a2.5,2.5,0,0,1,3.8,3.25c-4.3,5-8.66,10.27-13,15.58a188.46,188.46,0,0,0-34.69,66.38l-11.33,38.76A2.51,2.51,0,0,1,166.52,282.73Z"/></svg>